<mxfile host="app.diagrams.net" modified="2023-11-07T05:22:00.179Z" agent="Mozilla/5.0 (Windows NT 10.0; Win64; x64) AppleWebKit/537.36 (KHTML, like Gecko) Chrome/118.0.0.0 Safari/537.36" etag="aupqkRRAcGP42QlGtOoi" version="22.0.8" type="device">
  <diagram name="Page-1" id="e6qInPl9mrZFXyZ2h5iC">
    <mxGraphModel dx="1173" dy="627" grid="1" gridSize="10" guides="1" tooltips="1" connect="1" arrows="1" fold="1" page="1" pageScale="1" pageWidth="850" pageHeight="1100" math="0" shadow="0">
      <root>
        <mxCell id="0" />
        <mxCell id="1" parent="0" />
        <mxCell id="GhIQgpQ6DY_FsgufoWiH-1" value="&lt;font size=&quot;3&quot;&gt;Sum = Num 1 and Num 2&lt;/font&gt;" style="rounded=0;whiteSpace=wrap;html=1;" vertex="1" parent="1">
          <mxGeometry x="320" y="250" width="160" height="60" as="geometry" />
        </mxCell>
        <mxCell id="GhIQgpQ6DY_FsgufoWiH-2" value="&lt;font size=&quot;3&quot;&gt;Start&lt;/font&gt;" style="ellipse;whiteSpace=wrap;html=1;" vertex="1" parent="1">
          <mxGeometry x="320" y="20" width="120" height="80" as="geometry" />
        </mxCell>
        <mxCell id="GhIQgpQ6DY_FsgufoWiH-3" value="&lt;font size=&quot;3&quot;&gt;Input Num 1 and Num 2&lt;/font&gt;" style="shape=parallelogram;perimeter=parallelogramPerimeter;whiteSpace=wrap;html=1;fixedSize=1;" vertex="1" parent="1">
          <mxGeometry x="270" y="140" width="220" height="60" as="geometry" />
        </mxCell>
        <mxCell id="GhIQgpQ6DY_FsgufoWiH-4" value="&lt;font size=&quot;3&quot;&gt;Print&amp;nbsp; Sum&lt;/font&gt;" style="shape=parallelogram;perimeter=parallelogramPerimeter;whiteSpace=wrap;html=1;fixedSize=1;" vertex="1" parent="1">
          <mxGeometry x="280" y="350" width="210" height="60" as="geometry" />
        </mxCell>
        <mxCell id="GhIQgpQ6DY_FsgufoWiH-5" value="&lt;font size=&quot;3&quot;&gt;End&lt;/font&gt;" style="ellipse;whiteSpace=wrap;html=1;" vertex="1" parent="1">
          <mxGeometry x="325" y="460" width="120" height="80" as="geometry" />
        </mxCell>
        <mxCell id="GhIQgpQ6DY_FsgufoWiH-10" value="" style="endArrow=classic;html=1;rounded=0;exitX=0.531;exitY=1.038;exitDx=0;exitDy=0;exitPerimeter=0;" edge="1" parent="1" source="GhIQgpQ6DY_FsgufoWiH-2">
          <mxGeometry width="50" height="50" relative="1" as="geometry">
            <mxPoint x="380" y="110" as="sourcePoint" />
            <mxPoint x="385" y="140" as="targetPoint" />
          </mxGeometry>
        </mxCell>
        <mxCell id="GhIQgpQ6DY_FsgufoWiH-12" value="" style="endArrow=classic;html=1;rounded=0;entryX=0.378;entryY=-0.017;entryDx=0;entryDy=0;entryPerimeter=0;" edge="1" parent="1" source="GhIQgpQ6DY_FsgufoWiH-3" target="GhIQgpQ6DY_FsgufoWiH-1">
          <mxGeometry width="50" height="50" relative="1" as="geometry">
            <mxPoint x="290" y="250" as="sourcePoint" />
            <mxPoint x="290" y="300" as="targetPoint" />
            <Array as="points" />
          </mxGeometry>
        </mxCell>
        <mxCell id="GhIQgpQ6DY_FsgufoWiH-14" value="" style="endArrow=classic;html=1;rounded=0;entryX=0.542;entryY=0;entryDx=0;entryDy=0;entryPerimeter=0;exitX=0.462;exitY=1.033;exitDx=0;exitDy=0;exitPerimeter=0;" edge="1" parent="1" source="GhIQgpQ6DY_FsgufoWiH-1" target="GhIQgpQ6DY_FsgufoWiH-4">
          <mxGeometry width="50" height="50" relative="1" as="geometry">
            <mxPoint x="320" y="220" as="sourcePoint" />
            <mxPoint x="360" y="270" as="targetPoint" />
          </mxGeometry>
        </mxCell>
        <mxCell id="GhIQgpQ6DY_FsgufoWiH-22" value="" style="endArrow=classic;html=1;rounded=0;exitX=0.503;exitY=1.065;exitDx=0;exitDy=0;exitPerimeter=0;entryX=0.5;entryY=0;entryDx=0;entryDy=0;" edge="1" parent="1" source="GhIQgpQ6DY_FsgufoWiH-4" target="GhIQgpQ6DY_FsgufoWiH-5">
          <mxGeometry width="50" height="50" relative="1" as="geometry">
            <mxPoint x="240" y="430" as="sourcePoint" />
            <mxPoint x="240" y="380" as="targetPoint" />
          </mxGeometry>
        </mxCell>
        <mxCell id="GhIQgpQ6DY_FsgufoWiH-24" value="" style="endArrow=classic;html=1;rounded=0;entryX=0.378;entryY=-0.017;entryDx=0;entryDy=0;entryPerimeter=0;" edge="1" parent="1">
          <mxGeometry width="50" height="50" relative="1" as="geometry">
            <mxPoint x="1400" y="1220" as="sourcePoint" />
            <mxPoint x="1400" y="1269" as="targetPoint" />
            <Array as="points" />
          </mxGeometry>
        </mxCell>
      </root>
    </mxGraphModel>
  </diagram>
</mxfile>
